<?xml version="1.0" encoding="utf-8"?>
<!-- Generator: Adobe Illustrator 23.0.3, SVG Export Plug-In . SVG Version: 6.00 Build 0)  -->
<svg version="1.1" id="Layer_1" xmlns="http://www.w3.org/2000/svg" xmlns:xlink="http://www.w3.org/1999/xlink" x="0px" y="0px"
	 viewBox="0 0 512 512" style="enable-background:new 0 0 512 512;" xml:space="preserve">
<style type="text/css">
	.st0{fill:#ECEFF1;}
	.st1{fill:#CFD8DC;}
	.st2{fill:#F44336;}
</style>
<path d="M256,0C114.6,0,0,114.6,0,256s114.6,256,256,256s256-114.6,256-256S397.4,0,256,0z M372.9,199.6c0.1,2.5,0.2,5.1,0.2,7.6
	c0,77.6-59.1,167.2-167.2,167.2h0h0c-33.2,0-64.1-9.7-90.1-26.4c4.6,0.5,9.3,0.8,14,0.8c27.5,0,52.9-9.4,73-25.2
	c-25.7-0.5-47.4-17.5-54.9-40.8c3.6,0.7,7.3,1.1,11,1.1c5.4,0,10.6-0.7,15.5-2.1c-26.9-5.4-47.1-29.1-47.1-57.6c0-0.3,0-0.5,0-0.8
	c7.9,4.4,17,7.1,26.6,7.3c-15.8-10.5-26.1-28.5-26.1-48.9c0-10.8,2.9-20.9,8-29.5c29,35.6,72.3,58.9,121.1,61.4
	c-1-4.3-1.5-8.8-1.5-13.4c0-32.4,26.3-58.8,58.8-58.8c16.9,0,32.2,7.1,42.9,18.6c13.4-2.6,26-7.5,37.3-14.3
	c-4.4,13.7-13.7,25.2-25.8,32.5c11.9-1.4,23.2-4.6,33.7-9.3C394.3,181,384.4,191.3,372.9,199.6z"/>
<rect x="135" y="132" class="st0" width="248" height="248"/>
<polygon class="st1" points="256,282.1 380,380 380,186.7 "/>
<path class="st2" d="M390.3,132H380l-124,97.9L132,132h-10.3c-17.1,0-31,13.9-31,31v186c0,17.1,13.9,31,31,31H132V186.7l124,95.4
	l124-95.4V380h10.3c17.1,0,31-13.9,31-31V163C421.3,145.9,407.4,132,390.3,132z"/>
</svg>
